<svg width="24" height="24" viewBox="0 0 24 24" fill="none" xmlns="http://www.w3.org/2000/svg">
<path d="M17.7076 12.2962C19.8489 9.8025 21.5026 6.525 21.2476 2.4675C21.2476 2.4675 11.4301 0.989997 5.54639 14.3362L9.53639 18.3262C10.8772 17.711 12.1588 16.9742 13.3651 16.125M17.0739 2.79375C17.2393 3.76701 17.7081 4.66311 18.4132 5.35408C19.1183 6.04505 20.0237 6.49555 21.0001 6.64125" stroke="currentColor" stroke-width="1.125"/>
<path d="M15.1126 10.92C16.3967 10.92 17.4376 9.87905 17.4376 8.59499C17.4376 7.31093 16.3967 6.26999 15.1126 6.26999C13.8285 6.26999 12.7876 7.31093 12.7876 8.59499C12.7876 9.87905 13.8285 10.92 15.1126 10.92Z" stroke="currentColor" stroke-width="1.125"/>
<path d="M5.89886 13.5675L3.91136 13.8225C3.89393 13.8244 3.87628 13.8218 3.86017 13.8149C3.84405 13.8079 3.83001 13.7969 3.81942 13.783C3.80884 13.769 3.80207 13.7525 3.79978 13.7351C3.79749 13.7177 3.79976 13.7 3.80636 13.6837L5.27636 10.3087C5.34422 10.165 5.4452 10.0394 5.57102 9.94228C5.69683 9.84515 5.84389 9.77925 6.00011 9.74998L8.47136 9.23248M10.2676 17.91L10.0126 19.8975C10.0107 19.9149 10.0133 19.9326 10.0202 19.9487C10.0272 19.9648 10.0382 19.9788 10.0521 19.9894C10.0661 20 10.0826 20.0068 10.1 20.0091C10.1174 20.0114 10.1351 20.0091 10.1514 20.0025L13.5264 18.5325M8.64386 17.4337C7.75511 20.2162 3.37511 20.355 3.37511 20.355C3.37511 20.355 3.31136 16.08 6.22511 15" stroke="currentColor" stroke-width="1.125"/>
<path d="M17.0737 19.9838C19.1966 19.9838 20.9175 18.2629 20.9175 16.14C20.9175 14.0172 19.1966 12.2963 17.0737 12.2963C14.9509 12.2963 13.23 14.0172 13.23 16.14C13.23 18.2629 14.9509 19.9838 17.0737 19.9838Z" stroke="currentColor" stroke-width="1.125"/>
<path d="M17.0737 13.44V16.26L18.4162 17.2913" stroke="currentColor" stroke-width="1.125"/>
</svg>
