<svg width="24" height="24" viewBox="0 0 24 24" fill="none" xmlns="http://www.w3.org/2000/svg">
<path d="M12.1875 3.88499L14.7525 8.97374C14.7676 9.00395 14.7898 9.03 14.8173 9.04961C14.8447 9.06923 14.8766 9.0818 14.91 9.08624L20.625 9.89999C20.6663 9.90504 20.7051 9.92198 20.7369 9.94875C20.7686 9.97552 20.7919 10.011 20.8038 10.0507C20.8157 10.0905 20.8158 10.1329 20.8041 10.1727C20.7923 10.2126 20.7692 10.2481 20.7375 10.275L16.6125 14.2125C16.5874 14.2368 16.5687 14.2671 16.5582 14.3005C16.5478 14.3339 16.5458 14.3694 16.5525 14.4037L17.5275 19.9837C17.5349 20.0225 17.5311 20.0626 17.5167 20.0993C17.5023 20.136 17.4779 20.168 17.4462 20.1914C17.4145 20.2149 17.3768 20.229 17.3375 20.2321C17.2981 20.2351 17.2587 20.227 17.2238 20.2087L12.0975 17.5837C12.0672 17.5688 12.0338 17.5611 12 17.5611C11.9662 17.5611 11.9329 17.5688 11.9025 17.5837L6.77628 20.2087C6.74133 20.227 6.70193 20.2351 6.6626 20.2321C6.62327 20.229 6.58559 20.2149 6.55389 20.1914C6.52219 20.168 6.49775 20.136 6.48336 20.0993C6.46897 20.0626 6.46522 20.0225 6.47253 19.9837L7.44753 14.4037C7.45427 14.3694 7.4523 14.3339 7.44182 14.3005C7.43135 14.2671 7.41268 14.2368 7.38753 14.2125L3.26253 10.2675C3.2309 10.2406 3.20779 10.2051 3.19602 10.1652C3.18425 10.1254 3.18434 10.083 3.19627 10.0432C3.2082 10.0035 3.23146 9.96802 3.26321 9.94125C3.29496 9.91448 3.33381 9.89754 3.37503 9.89249L9.09753 9.07874C9.13099 9.0743 9.16284 9.06173 9.1903 9.04211C9.21776 9.0225 9.23999 8.99645 9.25503 8.96624L11.8125 3.88499C11.83 3.85028 11.8568 3.82111 11.8899 3.80073C11.923 3.78035 11.9612 3.76956 12 3.76956C12.0389 3.76956 12.077 3.78035 12.1101 3.80073C12.1432 3.82111 12.17 3.85028 12.1875 3.88499Z" stroke="black" stroke-width="1.125"/>
</svg>
