<svg width="24" height="24" viewBox="0 0 24 24" fill="none" xmlns="http://www.w3.org/2000/svg">
<path d="M17.0287 4.185L17.3512 5.16375C17.4474 5.47073 17.646 5.73545 17.9137 5.91375L18.75 6.45375C19.0239 6.63777 19.2265 6.91006 19.3241 7.22529C19.4217 7.54053 19.4083 7.87967 19.2862 8.18625L18.9712 8.97C18.8307 9.31629 18.8307 9.70371 18.9712 10.05L19.2825 10.8C19.4062 11.1001 19.4246 11.4332 19.3347 11.7451C19.2448 12.057 19.0519 12.3293 18.7875 12.5175L18.0487 13.05C17.7834 13.2408 17.5905 13.5157 17.5012 13.83L17.25 14.745C17.1591 15.0654 16.9599 15.3445 16.6864 15.5345C16.4129 15.7246 16.082 15.814 15.75 15.7875L14.9625 15.72C14.5923 15.69 14.2247 15.8027 13.935 16.035L13.185 16.6463C12.9284 16.8561 12.6071 16.9708 12.2756 16.9708C11.9441 16.9708 11.6228 16.8561 11.3662 16.6463L10.7025 16.125C10.4438 15.9117 10.119 15.795 9.78373 15.795H8.62498C8.29808 15.7951 7.98093 15.6837 7.72592 15.4791C7.47092 15.2746 7.29333 14.9891 7.22248 14.67L7.01623 13.7888C6.93543 13.4354 6.72371 13.1259 6.42373 12.9225L5.73748 12.4463C5.47321 12.2663 5.27633 12.0036 5.17788 11.6994C5.07943 11.3952 5.08501 11.0669 5.19373 10.7663L5.51623 9.88125C5.63442 9.55925 5.63442 9.20575 5.51623 8.88375L5.22748 8.11125C5.11286 7.80321 5.10647 7.46534 5.20939 7.15319C5.3123 6.84104 5.51838 6.57321 5.79373 6.39375L6.54373 5.9025C6.83766 5.71076 7.05215 5.419 7.14748 5.08125L7.37623 4.26375C7.46703 3.943 7.66603 3.66355 7.93945 3.47284C8.21287 3.28213 8.54386 3.19191 8.87623 3.2175L9.59998 3.28125C9.97013 3.31122 10.3377 3.19853 10.6275 2.96625L11.3137 2.41125C11.5712 2.20011 11.8939 2.08472 12.2269 2.08472C12.5598 2.08472 12.8825 2.20011 13.14 2.41125L13.7625 2.92875C14.0498 3.16943 14.42 3.2879 14.7937 3.25875L15.5437 3.2025C15.8656 3.17604 16.187 3.25853 16.4563 3.43672C16.7256 3.6149 16.9272 3.87844 17.0287 4.185Z" stroke="black" stroke-width="1.125"/>
<path d="M16.7212 15.5887L19.3462 20.1675C19.4137 20.2837 19.3462 20.4075 19.26 20.3738L16.0312 19.0613C16.0189 19.0573 16.0059 19.0561 15.993 19.0576C15.9802 19.0592 15.9678 19.0635 15.9568 19.0702C15.9457 19.077 15.9363 19.0861 15.9291 19.0968C15.9219 19.1076 15.917 19.1197 15.915 19.1325L15.5175 22.5075C15.495 22.6163 15.36 22.6012 15.2925 22.485L12.2437 16.9687L9.42747 22.5C9.35622 22.6163 9.22872 22.6313 9.20247 22.5263L8.72622 19.0762C8.72368 19.0638 8.71853 19.052 8.71112 19.0417C8.70371 19.0314 8.69421 19.0228 8.68323 19.0164C8.67225 19.0101 8.66005 19.0061 8.64742 19.0048C8.63479 19.0034 8.62203 19.0048 8.60997 19.0087L5.47122 20.3625C5.36622 20.3925 5.30997 20.2725 5.38122 20.1525L8.00622 15.5887M12.2775 6.33375L13.29 8.3925C13.293 8.39785 13.2974 8.40236 13.3026 8.40563C13.3078 8.4089 13.3138 8.41083 13.32 8.41125L15.57 8.74125C15.6 8.74125 15.615 8.78625 15.5925 8.805L13.95 10.4062C13.947 10.4114 13.9454 10.4172 13.9454 10.4231C13.9454 10.429 13.947 10.4349 13.95 10.44L14.325 12.69C14.3263 12.6968 14.3257 12.7038 14.3233 12.7103C14.3209 12.7167 14.3168 12.7224 14.3113 12.7267C14.3059 12.7309 14.2994 12.7336 14.2925 12.7344C14.2857 12.7352 14.2787 12.7341 14.2725 12.7312L12.24 11.6625C12.2352 11.6585 12.2293 11.6564 12.2231 11.6564C12.2169 11.6564 12.2109 11.6585 12.2062 11.6625L10.1962 12.75C10.1897 12.7525 10.1827 12.7534 10.1758 12.7525C10.1689 12.7516 10.1623 12.749 10.1567 12.7449C10.1511 12.7408 10.1466 12.7353 10.1437 12.729C10.1408 12.7227 10.1395 12.7157 10.14 12.7087L10.515 10.4587C10.5176 10.4535 10.519 10.4477 10.519 10.4419C10.519 10.436 10.5176 10.4302 10.515 10.425L8.86872 8.82375C8.86485 8.81835 8.86235 8.81211 8.86142 8.80554C8.86049 8.79897 8.86115 8.79227 8.86336 8.78601C8.86557 8.77976 8.86926 8.77413 8.8741 8.7696C8.87895 8.76507 8.88482 8.76178 8.89122 8.76L11.16 8.43C11.1662 8.42996 11.1723 8.42818 11.1776 8.42487C11.1829 8.42156 11.1872 8.41684 11.19 8.41125L12.2062 6.3525C12.2056 6.34379 12.2081 6.33515 12.2132 6.32805C12.2182 6.32096 12.2256 6.31586 12.2341 6.31364C12.2425 6.31142 12.2515 6.31221 12.2594 6.31588C12.2673 6.31955 12.2737 6.32587 12.2775 6.33375Z" stroke="black" stroke-width="1.125" stroke-linecap="round"/>
</svg>
