<svg width="32" height="32" viewBox="0 0 32 32" fill="none" xmlns="http://www.w3.org/2000/svg">
<path d="M19.3049 27.465L13.9699 17.785L4.53995 12.69C4.45888 12.6404 4.39361 12.5688 4.3518 12.4834C4.30998 12.3981 4.29335 12.3026 4.30384 12.2082C4.31433 12.1138 4.35152 12.0243 4.41105 11.9502C4.47057 11.8761 4.54997 11.8206 4.63995 11.79L27.0399 4.31999C27.1284 4.28969 27.2237 4.28482 27.3148 4.30594C27.4059 4.32707 27.4893 4.37333 27.5555 4.43948C27.6216 4.50562 27.6679 4.589 27.689 4.68013C27.7101 4.77126 27.7052 4.86648 27.6749 4.95499L20.2049 27.365C20.1744 27.455 20.1188 27.5344 20.0447 27.5939C19.9707 27.6534 19.8812 27.6906 19.7867 27.7011C19.6923 27.7116 19.5968 27.695 19.5115 27.6531C19.4262 27.6113 19.3545 27.5461 19.3049 27.465Z" stroke="currentColor" stroke-width="2.5"/>
<path d="M27.565 4.45502L13.97 17.785" stroke="currentColor" stroke-width="2.5" stroke-linecap="round"/>
</svg>
